#!OML:ASF X:\für Bonn\!DataBase\2005_08_12_Daniel\c3d\Daniel.ASF
:FULLY-SPECIFIED
:DEGREES
31
root -0.0803782 16.9788 -0.0427105 168.543 -0.150259 -178.494
lowerback 26.3669 -0.999974 6.49438
upperback 8.71229 -1.8034 -0.185389
thorax -4.98787 -1.72369 -3.3133
lowerneck 6.42426 -1.27356 -5.89669
upperneck 20.4839 0.925875 -1.23611
head 5.17394 0.89849 0.709134
rclavicle 1.64991e-014 9.54166e-015
rhumerus -19.406 -15.2075 -85.8434
rradius 2.78935
rwrist 28.1383
rhand -19.0874 7.14769
rfingers 7.12502
rthumb 7.22082 -22.7091
lclavicle 1.64991e-014 9.54166e-015
lhumerus -30.509 15.8001 85.5883
lradius 37.5251
lwrist -10.7746
lhand -11.9542 -7.44814
lfingers 7.12502
lthumb 14.1012 22.0534
rfemur -17.3731 -1.6533 20.2675
rtibia 32.7462
rfoot -5.90568 -3.28163
rtoes -6.12605
lfemur -0.890749 -2.30142 -13.4399
ltibia 62.3979
lfoot -15.3715 -1.74114
ltoes -11.2509
32
root -0.0484691 16.97 -0.103727 168.417 -0.254254 -178.405
lowerback 26.9804 -1.00443 6.74251
upperback 8.89997 -1.80165 -0.151648
thorax -5.06856 -1.75867 -3.40665
lowerneck 6.46535 -1.34554 -5.6776
upperneck 20.2325 0.775705 -1.27133
head 5.08869 0.827606 0.653967
rclavicle 3.32964e-015 -6.06293e-015
rhumerus -18.8968 -15.5451 -85.7458
rradius 3.06385
rwrist 28.964
rhand -18.9329 6.95669
rfingers 7.12502
rthumb 7.36988 -22.8949
lclavicle 3.32964e-015 -6.06293e-015
lhumerus -30.4521 15.6647 85.7952
lradius 37.6845
lwrist -10.9398
lhand -11.7997 -7.43366
lfingers 7.12502
lthumb 14.25 22.0575
rfemur -17.292 -1.90956 20.462
rtibia 33.2231
rfoot -6.12431 -3.1238
rtoes -6.25977
lfemur -2.16356 -2.00022 -13.1073
ltibia 64.2042
lfoot -14.5267 -1.55138
ltoes -11.7752
33
root -0.0177972 16.9618 -0.161611 168.281 -0.372729 -178.33
lowerback 27.6351 -1.01196 6.95946
upperback 9.1023 -1.81541 -0.0947585
thorax -5.14966 -1.8055 -3.45073
lowerneck 6.44013 -1.39463 -5.61841
upperneck 20.0273 0.645696 -1.20271
head 5.02899 0.758787 0.659509
rclavicle 5.26779e-015 -1.53064e-014
rhumerus -18.3519 -15.8392 -85.6114
rradius 3.40962
rwrist 29.8122
rhand -18.7121 6.71438
rfingers 7.12502
rthumb 7.58309 -23.1297
lclavicle 5.26779e-015 -1.53064e-014
lhumerus -30.3743 15.6175 86.0433
lradius 37.8763
lwrist -11.2389
lhand -11.6159 -7.43826
lfingers 7.12502
lthumb 14.4271 22.0403
rfemur -17.1981 -2.16964 20.6238
rtibia 33.6848
rfoot -6.35303 -2.96593
rtoes -6.31318
lfemur -3.42604 -1.72037 -12.83
ltibia 65.8484
lfoot -14.0157 -1.44402
ltoes -12.1583
34
root 0.0123564 16.9541 -0.216512 168.189 -0.490851 -178.252
lowerback 28.2716 -1.02132 7.2148
upperback 9.28843 -1.81621 -0.0683149
thorax -5.23602 -1.84345 -3.55472
lowerneck 6.5021 -1.45575 -5.49532
upperneck 19.7571 0.492949 -1.14973
head 4.93495 0.683753 0.64818
rclavicle 6.11263e-015 1.59028e-015
rhumerus -17.7187 -16.207 -85.5595
rradius 3.63874
rwrist 30.6534
rhand -18.6093 6.46593
rfingers 7.12502
rthumb 7.68225 -23.3745
lclavicle 6.11263e-015 1.59028e-015
lhumerus -30.2695 15.4775 86.2444
lradius 38.0475
lwrist -11.3335
lhand -11.4256 -7.46355
lfingers 7.12502
lthumb 14.6105 22.0018
rfemur -17.1641 -2.37787 20.7953
rtibia 34.1501
rfoot -6.61741 -2.86383
rtoes -6.45331
lfemur -4.71831 -1.48339 -12.5782
ltibia 67.3398
lfoot -13.7873 -1.43137
ltoes -12.1187
